<svg width="96" height="96" viewBox="0 0 96 96" fill="none" xmlns="http://www.w3.org/2000/svg">
<g clip-path="url(#clip0_3_21)">
<path d="M96 0C89.6965 -7.51679e-08 83.4548 1.24156 77.6312 3.65378C71.8076 6.06601 66.5161 9.60166 62.0589 14.0589C57.6017 18.5161 54.066 23.8076 51.6538 29.6312C49.2416 35.4548 48 41.6966 48 48L96 48V0Z" fill="url(#paint0_linear_3_21)"/>
<path d="M0 48C-1.11293e-06 60.7304 5.05713 72.9394 14.0589 81.9411C23.0606 90.9429 35.2696 96 48 96C60.7304 96 72.9394 90.9429 81.9411 81.9411C90.9429 72.9394 96 60.7304 96 48L48 48L0 48Z" fill="url(#paint1_linear_3_21)"/>
<path d="M48 0C41.6966 -7.51679e-08 35.4548 1.24156 29.6312 3.65378C23.8076 6.06601 18.5161 9.60166 14.0589 14.0589C9.60166 18.5161 6.06601 23.8076 3.65378 29.6312C1.24156 35.4548 -2.00365e-07 41.6966 0 48C2.00365e-07 54.3035 1.24156 60.5452 3.65378 66.3688C6.06601 72.1924 9.60166 77.4839 14.0589 81.9411C18.5161 86.3983 23.8076 89.934 29.6312 92.3462C35.4548 94.7584 41.6966 96 48 96L48 48V0Z" fill="url(#paint2_linear_3_21)"/>
</g>
<defs>
<linearGradient id="paint0_linear_3_21" x1="144" y1="48" x2="48" y2="48" gradientUnits="userSpaceOnUse">
<stop stop-color="#D9D9D9"/>
<stop offset="1" stop-color="#737373"/>
</linearGradient>
<linearGradient id="paint1_linear_3_21" x1="96" y1="48" x2="0" y2="48" gradientUnits="userSpaceOnUse">
<stop stop-color="#D9D9D9"/>
<stop offset="1" stop-color="#737373"/>
</linearGradient>
<linearGradient id="paint2_linear_3_21" x1="48" y1="96" x2="48" y2="0" gradientUnits="userSpaceOnUse">
<stop stop-color="#D9D9D9"/>
<stop offset="1" stop-color="#737373"/>
</linearGradient>
<clipPath id="clip0_3_21">
<rect width="96" height="96" fill="white"/>
</clipPath>
</defs>
</svg>
